<svg xmlns="http://www.w3.org/2000/svg" xmlns:xlink="http://www.w3.org/1999/xlink" width="500" zoomAndPan="magnify" viewBox="0 0 375 374.999991" height="500" preserveAspectRatio="xMidYMid meet" version="1.0"><defs><g/><clipPath id="ee34df2f8a"><path d="M 43 25 L 332 25 L 332 303.25 L 43 303.25 Z M 43 25 " clip-rule="nonzero"/></clipPath><clipPath id="758f6b9287"><path d="M 101.835938 208.1875 L 273.765625 208.1875 L 273.765625 302.769531 L 101.835938 302.769531 Z M 101.835938 208.1875 " clip-rule="nonzero"/></clipPath><clipPath id="932b797ebb"><path d="M 179 203 L 197 203 L 197 223 L 179 223 Z M 179 203 " clip-rule="nonzero"/></clipPath><clipPath id="b875134813"><path d="M 180.921875 223.566406 L 178.652344 221.6875 L 194.082031 203.054688 L 196.347656 204.929688 Z M 180.921875 223.566406 " clip-rule="nonzero"/></clipPath><clipPath id="c1b7d026da"><path d="M 179.785156 222.625 L 194.082031 203.054688 L 196.347656 204.933594 Z M 179.785156 222.625 " clip-rule="nonzero"/></clipPath><clipPath id="11ccde4e06"><path d="M 214 174 L 231 174 L 231 195 L 214 195 Z M 214 174 " clip-rule="nonzero"/></clipPath><clipPath id="80c8874ed6"><path d="M 229.71875 174.023438 L 232.042969 175.828125 L 217.210938 194.941406 L 214.886719 193.136719 Z M 229.71875 174.023438 " clip-rule="nonzero"/></clipPath><clipPath id="47fc6819d3"><path d="M 230.878906 174.925781 L 217.214844 194.9375 L 214.890625 193.136719 Z M 230.878906 174.925781 " clip-rule="nonzero"/></clipPath></defs><g clip-path="url(#ee34df2f8a)"><path fill="#4f397c" d="M 59.253906 170.265625 L 71.050781 170.265625 L 71.050781 291.257812 C 71.101562 292.074219 71.230469 292.878906 71.441406 293.667969 C 71.648438 294.460938 71.929688 295.222656 72.285156 295.957031 C 72.644531 296.691406 73.066406 297.386719 73.558594 298.039062 C 74.054688 298.691406 74.605469 299.289062 75.214844 299.835938 C 75.824219 300.378906 76.480469 300.859375 77.183594 301.277344 C 77.886719 301.691406 78.625 302.035156 79.394531 302.308594 C 80.164062 302.582031 80.953125 302.773438 81.761719 302.894531 C 82.574219 303.011719 83.386719 303.046875 84.203125 303.007812 L 153.90625 303.007812 L 153.90625 245.808594 C 153.890625 244.691406 153.933594 243.574219 154.03125 242.457031 C 154.125 241.34375 154.277344 240.234375 154.484375 239.136719 C 154.691406 238.035156 154.953125 236.949219 155.265625 235.875 C 155.578125 234.800781 155.945312 233.746094 156.363281 232.707031 C 156.785156 231.667969 157.253906 230.65625 157.773438 229.664062 C 158.289062 228.671875 158.859375 227.707031 159.472656 226.773438 C 160.085938 225.835938 160.746094 224.933594 161.449219 224.066406 C 162.152344 223.195312 162.898438 222.363281 163.6875 221.566406 C 164.472656 220.769531 165.296875 220.015625 166.15625 219.300781 C 167.019531 218.585938 167.914062 217.914062 168.839844 217.289062 C 169.769531 216.664062 170.722656 216.082031 171.710938 215.550781 C 172.695312 215.019531 173.703125 214.539062 174.734375 214.109375 C 175.769531 213.675781 176.820312 213.296875 177.890625 212.96875 C 178.960938 212.644531 180.042969 212.371094 181.140625 212.148438 C 182.238281 211.929688 183.34375 211.765625 184.457031 211.652344 C 185.570312 211.542969 186.6875 211.488281 187.804688 211.488281 C 188.925781 211.488281 190.042969 211.542969 191.15625 211.652344 C 192.269531 211.765625 193.375 211.929688 194.472656 212.148438 C 195.570312 212.371094 196.652344 212.644531 197.722656 212.96875 C 198.792969 213.296875 199.84375 213.675781 200.878906 214.109375 C 201.910156 214.539062 202.917969 215.019531 203.902344 215.550781 C 204.886719 216.082031 205.84375 216.664062 206.773438 217.289062 C 207.699219 217.914062 208.59375 218.585938 209.457031 219.300781 C 210.316406 220.015625 211.140625 220.769531 211.925781 221.566406 C 212.714844 222.363281 213.460938 223.195312 214.164062 224.066406 C 214.867188 224.933594 215.527344 225.835938 216.140625 226.773438 C 216.753906 227.707031 217.320312 228.671875 217.839844 229.664062 C 218.359375 230.65625 218.828125 231.667969 219.25 232.707031 C 219.667969 233.746094 220.035156 234.800781 220.347656 235.875 C 220.660156 236.949219 220.921875 238.035156 221.128906 239.136719 C 221.335938 240.234375 221.488281 241.34375 221.582031 242.457031 C 221.679688 243.574219 221.722656 244.691406 221.707031 245.808594 L 221.707031 303.003906 L 291.417969 303.003906 C 292.230469 303.046875 293.039062 303.007812 293.847656 302.894531 C 294.652344 302.777344 295.441406 302.585938 296.210938 302.316406 C 296.976562 302.042969 297.714844 301.703125 298.414062 301.289062 C 299.117188 300.875 299.769531 300.394531 300.378906 299.851562 C 300.984375 299.308594 301.535156 298.710938 302.027344 298.0625 C 302.515625 297.410156 302.9375 296.71875 303.292969 295.984375 C 303.648438 295.253906 303.929688 294.492188 304.132812 293.703125 C 304.339844 292.914062 304.464844 292.113281 304.515625 291.300781 L 304.515625 170.265625 L 316.367188 170.265625 C 329.5 170.265625 336.617188 157.902344 328.011719 149.964844 L 198.320312 30.070312 C 197.507812 29.382812 196.644531 28.773438 195.726562 28.238281 C 194.804688 27.707031 193.847656 27.253906 192.847656 26.890625 C 191.851562 26.527344 190.828125 26.25 189.78125 26.066406 C 188.734375 25.882812 187.679688 25.792969 186.617188 25.792969 C 185.550781 25.796875 184.496094 25.890625 183.453125 26.082031 C 182.40625 26.269531 181.382812 26.546875 180.386719 26.914062 C 179.390625 27.285156 178.433594 27.738281 177.515625 28.273438 C 176.597656 28.8125 175.734375 29.425781 174.925781 30.117188 C 159.46875 44.679688 143.992188 59.242188 128.496094 73.804688 L 128.496094 36.894531 C 128.496094 36.164062 128.425781 35.441406 128.285156 34.726562 C 128.140625 34.011719 127.929688 33.316406 127.652344 32.644531 C 127.371094 31.96875 127.027344 31.332031 126.625 30.722656 C 126.21875 30.117188 125.757812 29.558594 125.242188 29.042969 C 124.726562 28.527344 124.164062 28.066406 123.558594 27.664062 C 122.953125 27.257812 122.3125 26.914062 121.636719 26.636719 C 120.964844 26.359375 120.269531 26.148438 119.554688 26.007812 C 118.839844 25.863281 118.117188 25.792969 117.390625 25.792969 L 96.371094 25.792969 C 95.644531 25.792969 94.921875 25.863281 94.207031 26.007812 C 93.492188 26.148438 92.796875 26.359375 92.125 26.640625 C 91.449219 26.917969 90.8125 27.257812 90.207031 27.664062 C 89.601562 28.070312 89.039062 28.53125 88.523438 29.042969 C 88.007812 29.558594 87.546875 30.121094 87.144531 30.726562 C 86.738281 31.332031 86.398438 31.972656 86.117188 32.644531 C 85.839844 33.320312 85.628906 34.011719 85.484375 34.726562 C 85.34375 35.441406 85.273438 36.164062 85.273438 36.894531 L 85.273438 114.46875 C 72.679688 126.3125 60.089844 138.164062 47.5 150.023438 C 39.054688 158.019531 46.164062 170.265625 59.253906 170.265625 Z M 59.253906 170.265625 " fill-opacity="1" fill-rule="nonzero"/></g><g clip-path="url(#758f6b9287)"><path fill="#4f397c" d="M 101.835938 208.1875 L 273.636719 208.1875 L 273.636719 302.769531 L 101.835938 302.769531 Z M 101.835938 208.1875 " fill-opacity="1" fill-rule="nonzero"/></g><g fill="#bca7f2" fill-opacity="1"><g transform="translate(104.966921, 237.913578)"><g><path d="M 10.4375 0 L 10.4375 -120.09375 L 35.828125 -120.09375 L 35.828125 -70.546875 L 87.375 -70.546875 L 87.375 -120.09375 L 112.703125 -120.09375 L 112.703125 0 L 87.375 0 L 87.375 -49.609375 L 35.828125 -49.609375 L 35.828125 0 Z M 10.4375 0 "/></g></g></g><g fill="#bca7f2" fill-opacity="1"><g transform="translate(181.823268, 276.17827)"><g><path d="M 10.4375 0 L 10.4375 -120.09375 L 35.828125 -120.09375 L 35.828125 -20.9375 L 87.3125 -20.9375 L 87.3125 0 Z M 10.4375 0 "/></g></g></g><path stroke-linecap="butt" transform="matrix(0.501848, -0.557359, 0.557359, 0.501848, 171.327855, 231.993441)" fill="none" stroke-linejoin="miter" d="M 0.00171277 4.498402 L 125.526683 4.501357 " stroke="#4f397c" stroke-width="9" stroke-opacity="1" stroke-miterlimit="4"/><g clip-path="url(#932b797ebb)"><g clip-path="url(#b875134813)"><g clip-path="url(#c1b7d026da)"><path fill="#bca7f2" d="M 180.921875 223.566406 L 178.652344 221.6875 L 194.082031 203.054688 L 196.347656 204.929688 Z M 180.921875 223.566406 " fill-opacity="1" fill-rule="nonzero"/></g></g></g><g clip-path="url(#11ccde4e06)"><g clip-path="url(#80c8874ed6)"><g clip-path="url(#47fc6819d3)"><path fill="#bca7f2" d="M 229.71875 174.023438 L 232.042969 175.828125 L 217.210938 194.941406 L 214.886719 193.136719 Z M 229.71875 174.023438 " fill-opacity="1" fill-rule="nonzero"/></g></g></g><g fill="#4f397c" fill-opacity="1"><g transform="translate(82.91378, 347.999977)"><g><path d="M 9.421875 -12.578125 L 9.421875 0 L 2.28125 0 L 2.28125 -31.34375 L 9.421875 -31.34375 L 9.421875 -18.84375 L 19.53125 -18.84375 L 19.53125 -31.34375 L 26.671875 -31.34375 L 26.671875 0 L 19.53125 0 L 19.53125 -12.578125 Z M 9.421875 -12.578125 "/></g></g></g><g fill="#4f397c" fill-opacity="1"><g transform="translate(114.903883, 347.999977)"><g><path d="M 18.203125 -31.34375 L 30.859375 0 L 23.1875 0 L 20.859375 -6.265625 L 8.9375 -6.265625 L 6.609375 0 L -1.0625 0 L 11.59375 -31.34375 Z M 18.4375 -12.546875 L 14.9375 -21.65625 L 14.859375 -21.65625 L 11.359375 -12.546875 Z M 18.4375 -12.546875 "/></g></g></g><g fill="#4f397c" fill-opacity="1"><g transform="translate(147.729816, 347.999977)"><g><path d="M 9.421875 -31.34375 L 9.421875 -6.265625 L 20.21875 -6.265625 L 20.21875 0 L 2.28125 0 L 2.28125 -31.34375 Z M 9.421875 -31.34375 "/></g></g></g><g fill="#4f397c" fill-opacity="1"><g transform="translate(172.235449, 347.999977)"><g><path d="M 9.421875 -31.34375 L 9.421875 -6.265625 L 20.21875 -6.265625 L 20.21875 0 L 2.28125 0 L 2.28125 -31.34375 Z M 9.421875 -31.34375 "/></g></g></g><g fill="#4f397c" fill-opacity="1"><g transform="translate(196.741082, 347.999977)"><g><path d="M -1.140625 -31.34375 L 7.453125 -31.34375 L 13.984375 -21.3125 L 20.515625 -31.34375 L 29.109375 -31.34375 L 17.5625 -14.0625 L 17.5625 0 L 10.40625 0 L 10.40625 -14.0625 Z M -1.140625 -31.34375 "/></g></g></g><g fill="#4f397c" fill-opacity="1"><g transform="translate(227.743388, 347.999977)"><g><path d="M 9.421875 -19.453125 L 9.421875 0 L 2.28125 0 L 2.28125 -31.34375 L 9.421875 -31.34375 L 21.890625 -11.890625 L 21.96875 -11.890625 L 21.96875 -31.34375 L 29.109375 -31.34375 L 29.109375 0 L 21.96875 0 L 9.5 -19.453125 Z M 9.421875 -19.453125 "/></g></g></g><g fill="#4f397c" fill-opacity="1"><g transform="translate(262.164993, 347.999977)"><g><path d="M 30.8125 0 L 20.96875 0 L 9.421875 -13.296875 L 9.421875 0 L 2.28125 0 L 2.28125 -31.34375 L 9.421875 -31.34375 L 9.421875 -18.546875 L 20.171875 -31.34375 L 28.84375 -31.34375 L 16.21875 -16.484375 Z M 30.8125 0 "/></g></g></g></svg>